HIERARCHY
ROOT ROOT
{
	OFFSET 0.000000 56.020000 -5.659234
	CHANNELS 6 Xposition Yposition Zposition Xrotation Yrotation Zrotation 
	JOINT C_spine0001_bind_JNT
	{
		OFFSET 0.000000 1.618999 0.000000
		CHANNELS 3 Xrotation Yrotation Zrotation
		JOINT C_spine0002_bind_JNT
		{
			OFFSET 0.000000 4.942001 0.000001
			CHANNELS 3 Xrotation Yrotation Zrotation
			JOINT C_spine0003_bind_JNT
			{
				OFFSET 0.000000 4.942001 -0.000000
				CHANNELS 3 Xrotation Yrotation Zrotation
				JOINT C_neck0001_bind_JNT
				{
					OFFSET 0.000000 17.026009 -0.000000
					CHANNELS 3 Xrotation Yrotation Zrotation
					JOINT C_neck0002_bind_JNT
					{
						OFFSET 0.000000 3.249985 0.000000
						CHANNELS 3 Xrotation Yrotation Zrotation
						JOINT C_head_bind_JNT
						{
							OFFSET 0.000000 5.278008 0.000000
							CHANNELS 3 Xrotation Yrotation Zrotation
							End Site
							{
								OFFSET 0.000000 0.000000 0.000000
							}
						}
					}
				}
				JOINT L_clavicle_bind_JNT
				{
					OFFSET 4.590000 12.067001 0.834000
					CHANNELS 3 Xrotation Yrotation Zrotation
					JOINT L_armUpper0001_bind_JNT
					{
						OFFSET 7.812635 0.512001 -3.452945
						CHANNELS 3 Xrotation Yrotation Zrotation
						JOINT L_armLower0001_bind_JNT
						{
							OFFSET 15.265892 -6.552116 -0.058157
							CHANNELS 3 Xrotation Yrotation Zrotation
							JOINT L_hand0001_bind_JNT
							{
								OFFSET 14.747667 -6.369995 5.049225
								CHANNELS 3 Xrotation Yrotation Zrotation
								End Site
								{
									OFFSET 0.000000 0.000000 0.000000
								}
							}
						}
					}
				}
				JOINT R_clavicle_bind_JNT
				{
					OFFSET -4.590000 12.067001 0.834000
					CHANNELS 3 Xrotation Yrotation Zrotation
					JOINT R_armUpper0001_bind_JNT
					{
						OFFSET -7.812635 0.512001 -3.452945
						CHANNELS 3 Xrotation Yrotation Zrotation
						JOINT R_armLower0001_bind_JNT
						{
							OFFSET -15.265890 -6.552124 -0.058160
							CHANNELS 3 Xrotation Yrotation Zrotation
							JOINT R_hand0001_bind_JNT
							{
								OFFSET -14.746784 -6.369629 5.048937
								CHANNELS 3 Xrotation Yrotation Zrotation
								End Site
								{
									OFFSET 0.000000 0.000000 0.000000
								}
							}
						}
					}
				}
			}
		}
	}
	JOINT C_pelvis0001_bind_JNT
	{
		OFFSET -0.000000 0.000000 0.000000
		CHANNELS 3 Xrotation Yrotation Zrotation
		JOINT L_legUpper0001_bind_JNT
		{
			OFFSET 6.599999 -6.027000 0.539000
			CHANNELS 3 Xrotation Yrotation Zrotation
			JOINT L_legLower0001_bind_JNT
			{
				OFFSET -0.140713 -19.187443 0.040261
				CHANNELS 3 Xrotation Yrotation Zrotation
				JOINT L_foot0001_bind_JNT
				{
					OFFSET -0.132215 -18.028637 -1.138370
					CHANNELS 3 Xrotation Yrotation Zrotation
					JOINT L_foot0002_bind_JNT
					{
						OFFSET 0.007014 -4.693133 9.886524
						CHANNELS 3 Xrotation Yrotation Zrotation
						End Site
						{
							OFFSET 0.000000 0.000000 0.000000
						}
					}
				}
			}
		}
		JOINT R_legUpper0001_bind_JNT
		{
			OFFSET -6.599999 -6.027000 0.539000
			CHANNELS 3 Xrotation Yrotation Zrotation
			JOINT R_legLower0001_bind_JNT
			{
				OFFSET 0.140710 -19.187164 0.040550
				CHANNELS 3 Xrotation Yrotation Zrotation
				JOINT R_foot0001_bind_JNT
				{
					OFFSET 0.132215 -18.028633 -1.138362
					CHANNELS 3 Xrotation Yrotation Zrotation
					JOINT R_foot0002_bind_JNT
					{
						OFFSET -0.007014 -4.693128 9.886505
						CHANNELS 3 Xrotation Yrotation Zrotation
						End Site
						{
							OFFSET 0.000000 0.000000 0.000000
						}
					}
				}
			}
		}
	}
}
MOTION
Frames: 6
Frame Time: 0.033333
20.242664 45.672958 -0.473748 0.021302 -7.904093 -0.002897 -5.586962 3.312708 -8.350806 11.281972 -4.064443 -4.487438 4.632832 -2.539830 -2.000690 -1.573004 0.706588 -1.005648 0.957318 5.543266 -0.456872 9.222699 2.226743 6.442679 -1.486493 7.729274 1.844175 -22.610086 -4.120044 -51.148125 -28.671385 -18.857893 -29.210566 3.729131 -54.099934 -5.930920 -3.788541 -20.597345 3.876307 8.119369 -22.364286 45.510807 5.928768 0.685051 -10.124338 8.155883 21.488163 29.106344 -4.160304 2.637322 -7.256660 -10.767886 0.878115 22.186449 39.381145 -3.626003 1.270027 -21.058794 10.829350 -13.527596 -1.367619 -0.976223 0.228721 -15.383242 0.232738 -11.126667 15.978361 1.409061 -0.196307 6.951015 -4.149990 11.783846 0.211359 1.158146 -0.062382 
18.652798 45.785030 -0.346158 0.033879 -7.522044 -0.021545 -5.072264 3.060765 -7.885147 11.324369 -3.981458 -3.996672 4.628437 -2.375150 -1.858341 -1.541426 0.652706 -0.797224 1.004048 6.094091 -0.157844 8.489295 2.050985 5.443489 -1.643210 7.541177 1.532035 -21.978609 -3.226541 -51.081833 -27.957424 -19.107264 -29.743748 3.539567 -53.893848 -6.463643 -3.834789 -20.485344 3.693713 7.617975 -22.052538 44.944946 4.832852 1.037196 -9.272010 8.375177 21.727234 28.831272 -3.462756 2.123841 -6.769915 -9.962762 1.033976 23.145803 36.028717 -4.577802 2.484665 -18.796774 11.799304 -15.828288 -1.177159 -0.983317 0.304724 -15.563516 0.369375 -10.204976 16.810711 0.016181 0.425921 4.483088 -4.604663 10.722136 0.627003 0.977701 0.412229 
17.131445 45.906536 -0.244724 0.022000 -6.952183 -0.002632 -4.404507 2.815226 -7.794327 11.166587 -3.843215 -3.268054 4.466938 -2.246264 -1.647169 -1.314591 0.501905 -0.751207 1.040419 6.648047 0.156159 7.871622 1.529328 4.786778 -1.810867 7.665162 1.423851 -21.132475 -2.282935 -51.060936 -26.616602 -19.696053 -30.309906 4.700454 -53.315533 -6.192511 -4.163556 -20.149290 3.404688 7.188702 -22.152655 44.542217 4.194905 1.400057 -8.768117 7.961154 21.915697 29.184925 -2.933053 2.017087 -6.570031 -9.444789 0.686835 23.967489 33.757748 -5.627474 3.660914 -16.691055 12.859025 -17.686451 -1.514674 -0.962369 0.414392 -16.168007 0.508576 -9.238811 18.712698 -1.457129 0.884769 1.734943 -4.034591 10.310562 0.968432 0.544877 0.619127 
15.459704 45.916340 -0.146060 0.024801 -6.644580 -0.012211 -3.987468 2.815969 -7.543031 11.260344 -3.544357 -2.826644 4.731706 -2.092720 -1.342689 -1.511202 0.404288 -0.451611 1.111224 7.275100 0.483161 7.561653 1.238874 3.602404 -2.109221 7.521811 1.142801 -20.243505 -0.998926 -50.853714 -24.482370 -20.600952 -30.244053 5.008641 -52.395218 -7.027483 -4.699510 -19.731440 3.377285 6.788639 -22.141706 44.359131 3.215751 1.837660 -7.883561 7.807930 22.068054 29.177355 -2.573904 2.303730 -6.278417 -8.826942 0.551796 25.230600 30.422003 -6.035252 4.580139 -13.056773 13.397009 -20.119265 -1.853423 -0.937846 0.180245 -16.904985 0.385012 -7.760684 21.329859 -2.514705 1.594231 -0.780536 -3.858166 8.773474 0.798099 0.469901 0.800087 
14.003467 45.926067 0.038662 0.020394 -6.290116 -0.007929 -3.835471 2.919306 -7.183488 11.566585 -3.393716 -2.052830 4.718997 -1.929077 -1.126693 -1.509891 0.354615 -0.202332 1.080193 7.890317 0.562435 7.525068 0.886621 2.792228 -2.550693 7.697814 0.891044 -18.640636 0.213934 -50.833698 -21.775476 -22.092344 -30.031332 6.253921 -51.040901 -6.852988 -5.527637 -19.245102 3.116345 6.629808 -22.189026 44.405899 2.563619 2.261822 -7.612835 7.183353 22.130568 29.490307 -2.413361 2.539296 -6.012766 -8.420828 0.179878 25.864349 28.389515 -6.841090 5.137674 -10.139277 14.658551 -21.045383 -2.527200 -1.065685 0.145047 -18.017935 0.520629 -6.921339 24.914797 -3.520434 2.330724 -3.893179 -3.217139 7.831513 0.596444 0.307451 1.065405 
12.561394 45.893265 0.358114 0.018726 -5.610714 -0.008582 -3.746741 2.749219 -6.647295 11.686651 -3.027127 -1.464866 4.970595 -1.743301 -0.876289 -1.574701 0.421406 0.321191 1.178956 8.291716 0.634332 7.558828 0.778426 1.634342 -2.755694 7.354679 0.688177 -16.818468 1.716717 -50.903671 -18.999992 -23.225836 -29.185137 6.437334 -49.750614 -8.439502 -5.875136 -19.000360 3.002817 5.945067 -22.039541 44.306931 2.164325 2.200480 -6.832081 6.847804 22.763861 29.720467 -2.272804 2.306641 -5.638485 -8.207184 0.462657 26.168081 25.551876 -7.322941 5.789937 -6.506709 15.423053 -21.923698 -2.896738 -1.176858 0.219684 -18.919977 0.421364 -5.799164 28.523743 -3.855424 2.896734 -6.839894 -3.440997 6.541663 0.529826 0.370282 0.880073 
